#!OML:ASF X:\für Bonn\!DataBase\2005_08_10_Bjorn_Final\c3d\bjorn.ASF
:FULLY-SPECIFIED
:DEGREES
78
root 0.902125 11.567 3.90915 -179.088 0.811399 -181.256
lowerback 27.9827 -2.69721 3.77424
upperback 12.3084 0.830371 -1.94838
thorax -1.64509 2.03123 -4.57691
lowerneck -18.0347 -0.164596 4.86014
upperneck -3.20719 -1.97163 -2.10126
head 2.01683 -1.45255 -1.70312
rclavicle -2.98177e-015 -1.17283e-014
rhumerus 84.3617 -4.19738 -58.9143
rradius 16.8964
rwrist 30.9891
rhand -12.7835 9.75531
rfingers 7.12502
rthumb 13.3019 -19.8002
lclavicle -2.98177e-015 -1.17283e-014
lhumerus 86.4792 -0.989025 56.016
lradius 13.7427
lwrist -33.8521
lhand -37.1951 -12.136
lfingers 7.12502
lthumb -10.2629 17.5936
rfemur -72.6203 -25.5736 11.4088
rtibia 127.167
rfoot -32.4115 30.7782
rtoes -26.6437
lfemur -71.4021 9.22251 -22.1517
ltibia 129.54
lfoot -31.3614 -10.0325
ltoes -24.6398
79
root 0.903022 11.3143 3.91491 -179.471 0.78629 -181.122
lowerback 28.6423 -2.80751 3.84878
upperback 12.4435 0.847718 -1.92488
thorax -1.7936 2.08644 -4.61819
lowerneck -18.0153 -0.153035 4.89776
upperneck -3.34953 -1.97662 -2.15082
head 1.96423 -1.46525 -1.72404
rclavicle 1.2921e-014 -1.82882e-014
rhumerus 84.4977 -4.24949 -60.6017
rradius 16.9886
rwrist 31.2685
rhand -13.0615 9.79917
rfingers 7.12502
rthumb 13.0339 -19.7736
lclavicle 1.2921e-014 -1.82882e-014
lhumerus 86.5384 -0.949976 56.2735
lradius 13.8208
lwrist -33.9412
lhand -37.1574 -12.0761
lfingers 7.12502
lthumb -10.2265 17.6553
rfemur -73.7411 -27.7976 11.2617
rtibia 129.256
rfoot -32.2015 32.227
rtoes -26.019
lfemur -72.4194 10.5393 -22.0087
ltibia 131.619
lfoot -31.7648 -10.4523
ltoes -25.4837
80
root 0.904141 11.0717 3.91848 -179.834 0.773455 -181.007
lowerback 29.2729 -2.9115 3.89799
upperback 12.5757 0.864742 -1.89999
thorax -1.92949 2.1397 -4.6426
lowerneck -18.0188 -0.145687 4.8272
upperneck -3.49844 -1.97116 -2.1376
head 1.91427 -1.47103 -1.70404
rclavicle -1.98785e-015 -3.77691e-015
rhumerus 84.5007 -4.2958 -61.3627
rradius 17.2131
rwrist 30.5983
rhand -13.3623 9.74081
rfingers 7.12502
rthumb 12.7439 -19.8503
lclavicle -1.98785e-015 -3.77691e-015
lhumerus 86.5954 -0.908738 56.53
lradius 13.8564
lwrist -34.0878
lhand -37.0494 -11.9595
lfingers 7.12502
lthumb -10.1223 17.777
rfemur -74.8181 -30.3002 11.1247
rtibia 131.256
rfoot -32.3229 33.5211
rtoes -25.9296
lfemur -73.3965 12.0184 -21.8866
ltibia 133.596
lfoot -32.2066 -10.856
ltoes -26.4513
81
root 0.904761 10.8317 3.9209 -180.216 0.761114 -180.908
lowerback 29.8798 -3.02068 3.94423
upperback 12.7156 0.877079 -1.89416
thorax -2.04307 2.19342 -4.68424
lowerneck -18.0278 -0.137192 4.78078
upperneck -3.65615 -1.97052 -2.14514
head 1.86208 -1.48092 -1.69565
rclavicle -3.97569e-016 -1.76918e-014
rhumerus 84.4545 -4.36533 -61.6129
rradius 17.4291
rwrist 29.4958
rhand -13.668 9.68393
rfingers 7.12502
rthumb 12.4492 -19.9253
lclavicle -3.97569e-016 -1.76918e-014
lhumerus 86.6713 -0.849735 56.4647
lradius 13.8154
lwrist -33.9945
lhand -36.8789 -11.8669
lfingers 7.12502
lthumb -9.95781 17.8775
rfemur -75.8554 -33.1838 10.9677
rtibia 133.22
rfoot -32.8423 34.6567
rtoes -26.607
lfemur -74.3196 13.6754 -21.7853
ltibia 135.512
lfoot -32.6618 -11.2503
ltoes -27.4569
82
root 0.905266 10.5975 3.92157 -180.597 0.749033 -180.809
lowerback 30.4406 -3.12361 4.00729
upperback 12.8551 0.899358 -1.89167
thorax -2.1325 2.25276 -4.74097
lowerneck -18.0383 -0.150121 4.73086
upperneck -3.79891 -1.99582 -2.15776
head 1.81431 -1.50284 -1.69037
rclavicle -8.54774e-015 5.36719e-015
rhumerus 84.33 -4.43467 -61.6636
rradius 17.7212
rwrist 28.1968
rhand -13.9431 9.66638
rfingers 7.12502
rthumb 12.184 -19.9588
lclavicle -8.54774e-015 5.36719e-015
lhumerus 86.7697 -0.839507 56.4185
lradius 13.6858
lwrist -33.9541
lhand -36.7764 -11.8447
lfingers 7.12502
lthumb -9.85891 17.9045
rfemur -76.8581 -36.3605 10.7807
rtibia 135.107
rfoot -33.4381 35.8901
rtoes -27.2899
lfemur -75.2195 15.6187 -21.6665
ltibia 137.349
lfoot -33.103 -11.7697
ltoes -28.4626
83
root 0.905733 10.3698 3.92071 -180.987 0.736887 -180.745
lowerback 30.9429 -3.22024 4.02872
upperback 13.0173 0.921918 -1.89491
thorax -2.16787 2.31512 -4.77716
lowerneck -18.0357 -0.154112 4.71792
upperneck -3.96141 -2.01691 -2.21039
head 1.75756 -1.52522 -1.70418
rclavicle 1.92821e-014 -3.27995e-014
rhumerus 84.1952 -4.5102 -61.6641
rradius 18.0337
rwrist 27.1105
rhand -14.1115 9.75483
rfingers 7.12502
rthumb 12.0216 -19.8799
lclavicle 1.92821e-014 -3.27995e-014
lhumerus 86.9424 -0.791194 56.0995
lradius 13.4479
lwrist -33.7047
lhand -36.5651 -11.7989
lfingers 7.12502
lthumb -9.65502 17.9599
rfemur -77.7778 -39.9397 10.4759
rtibia 136.927
rfoot -34.3288 37.2029
rtoes -28.1642
lfemur -76.0769 17.8022 -21.589
ltibia 139.121
lfoot -33.6411 -12.2095
ltoes -29.6534
84
root 0.907222 10.1502 3.91801 -181.378 0.745289 -180.663
lowerback 31.422 -3.30603 4.03474
upperback 13.1859 0.955988 -1.87329
thorax -2.18297 2.38269 -4.77917
lowerneck -18.0244 -0.165025 4.70029
upperneck -4.11377 -2.04354 -2.31323
head 1.70254 -1.5511 -1.73421
rclavicle -5.96354e-016 1.39149e-015
rhumerus 84.0389 -4.56367 -61.3663
rradius 18.3488
rwrist 25.9594
rhand -14.2418 9.88173
rfingers 7.12502
rthumb 11.8959 -19.7603
lclavicle -5.96354e-016 1.39149e-015
lhumerus 87.1041 -0.698398 55.6041
lradius 13.186
lwrist -33.2497
lhand -36.3464 -11.7798
lfingers 7.12502
lthumb -9.44406 17.9886
rfemur -78.6163 -43.7202 10.1224
rtibia 138.664
rfoot -35.4219 38.5556
rtoes -29.0552
lfemur -76.8695 20.4981 -21.424
ltibia 140.814
lfoot -34.1838 -13.04
ltoes -30.448
85
root 0.907428 9.94174 3.90889 -181.768 0.743317 -180.599
lowerback 31.8659 -3.40622 4.07406
upperback 13.3568 0.979272 -1.88365
thorax -2.17794 2.44858 -4.83165
lowerneck -18.0306 -0.155927 4.76889
upperneck -4.2512 -2.06055 -2.45229
head 1.65579 -1.57388 -1.79187
rclavicle -3.18055e-015 -3.57812e-015
rhumerus 83.8593 -4.64036 -60.9849
rradius 18.6239
rwrist 24.9427
rhand -14.2735 10.0602
rfingers 7.12502
rthumb 11.8654 -19.5836
lclavicle -3.18055e-015 -3.57812e-015
lhumerus 87.1753 -0.68385 55.3281
lradius 13.0518
lwrist -33.0437
lhand -36.067 -11.744
lfingers 7.12502
lthumb -9.17447 18.0364
rfemur -79.2528 -47.8966 9.59215
rtibia 140.303
rfoot -36.9775 39.9
rtoes -30.1217
lfemur -77.5318 23.5569 -21.2539
ltibia 142.405
lfoot -34.9249 -13.8605
ltoes -31.4237
86
root 0.907653 9.74327 3.89309 -182.157 0.743017 -180.535
lowerback 32.6532 -3.52695 4.10109
upperback 13.2609 1.01386 -2.05945
thorax -2.25931 2.52132 -4.70303
lowerneck -18.1194 -0.154154 4.73046
upperneck -4.31103 -2.06881 -2.47995
head 1.6507 -1.58569 -1.79554
rclavicle 1.25234e-014 -7.95139e-015
rhumerus 83.6637 -4.70143 -60.2175
rradius 18.846
rwrist 23.907
rhand -14.3736 10.2681
rfingers 7.12502
rthumb 11.7689 -19.3812
lclavicle 1.25234e-014 -7.95139e-015
lhumerus 87.0891 -0.722401 55.4596
lradius 13.0393
lwrist -33.2059
lhand -35.7135 -11.7067
lfingers 7.12502
lthumb -8.83335 18.0884
rfemur -79.5944 -52.5153 8.815
rtibia 141.855
rfoot -39.0416 41.2301
rtoes -31.267
lfemur -78.047 23.4796 -20.9553
ltibia 143.925
lfoot -35.2898 -13.556
ltoes -32.0444
